<svg width="467" height="385" viewBox="0 0 467 385" fill="none" xmlns="http://www.w3.org/2000/svg">
<g clip-path="url(#clip0_14_3)">
<path opacity="0.5" d="M112.69 375.28H381.66C417.08 340.47 439.05 292.02 439.05 238.44C439.05 132.47 353.14 46.57 247.17 46.57C141.2 46.57 55.3 132.47 55.3 238.44C55.3 292.02 77.2701 340.47 112.69 375.28Z" fill="#BF9DE9"/>
<path d="M330.8 133.33C330.8 184.73 293.96 226.4 248.53 226.4C203.09 226.4 166.26 184.73 166.26 133.33C166.26 81.93 203.09 19.23 248.53 19.23C293.96 19.23 330.8 81.92 330.8 133.33Z" fill="#6453ED"/>
<path d="M229.66 172.15C216.53 176.08 203.63 180.23 191.19 186.06C179.65 191.46 168.98 198.39 158.76 205.97C136.66 222.38 114.34 242.16 102.99 267.84C96.0499 283.52 93.3999 299.27 97.1099 316.24C99.6899 328.05 107.21 339.44 116.33 347.23C126.14 355.62 137.32 361.38 149.64 365.21C156.02 367.2 162.72 367.98 169.38 368.38C172.21 368.55 174.92 368.47 177.75 367.72C183.39 366.22 189.5 364.54 193.61 360.11C200.33 352.85 200.72 343.24 195.03 335.38C189.24 327.38 179.92 325.66 170.89 323.27C166.78 322.19 162.66 321.17 158.63 319.83C157.9 319.59 156.18 318.87 155.04 318.4C153.83 317.79 152.63 317.15 151.44 316.47C150.57 315.97 149.72 315.44 148.89 314.89C148.29 314.39 146.14 312.72 145.38 311.97C144.82 311.43 143.79 310.15 143.08 309.26C142.59 308.44 142.12 307.6 141.68 306.75C141.46 306.02 141.25 305.3 141.05 304.56C140.97 304.25 140.9 303.93 140.83 303.62C140.71 302.85 140.53 301.65 140.5 301.04C140.41 298.96 140.52 296.87 140.71 294.79C140.41 298.35 141.55 291.37 141.97 289.9C142.27 288.86 144.17 284.08 144.03 284.19C144.9 282.41 145.86 280.67 146.83 278.94C149.2 274.72 151.97 270.72 154.87 266.85C154.45 267.48 158.03 263 158.7 262.22C160.39 260.25 162.1 258.29 163.81 256.35C171.16 248.04 179.14 240.28 187.55 233.05C189.64 231.25 191.78 229.51 193.93 227.79C194.41 227.41 194.9 227.03 195.39 226.65C194.81 227.12 197.69 224.92 197.99 224.7C202.48 221.42 206.96 218.12 211.58 215.02C220.82 208.81 230.17 202.75 240.31 198.1C255.01 191.35 244.82 167.6 229.66 172.15Z" fill="#6453ED"/>
<path d="M394.67 269.68C383.79 243.79 361.84 223.61 340.05 206.79C329.98 199.02 319.43 191.9 308 186.28C295.67 180.22 282.85 175.83 269.8 171.66C254.72 166.84 244.09 190.39 258.67 197.4C268.72 202.23 277.96 208.46 287.08 214.85C291.64 218.04 296.06 221.41 300.49 224.78C300.79 225.01 303.65 227.27 303.05 226.77C303.53 227.16 304.01 227.55 304.49 227.94C306.61 229.7 308.72 231.48 310.77 233.32C319.04 240.71 326.87 248.61 334.07 257.06C335.75 259.04 337.42 261.03 339.07 263.02C339.73 263.81 343.22 268.35 342.82 267.72C345.65 271.65 348.34 275.69 350.64 279.96C351.58 281.71 352.5 283.47 353.34 285.26C353.2 285.17 355.02 289.97 355.29 291.01C355.68 292.49 356.7 299.5 356.46 295.92C356.61 298 356.69 300.1 356.56 302.18C356.52 302.79 356.32 303.99 356.18 304.76C356.1 305.07 356.03 305.39 355.95 305.7C355.74 306.43 355.52 307.15 355.28 307.87C354.83 308.71 354.35 309.54 353.84 310.35C353.11 311.23 352.06 312.49 351.49 313.02C350.71 313.76 348.54 315.38 347.92 315.88C347.08 316.42 346.22 316.93 345.34 317.41C344.15 318.06 342.93 318.68 341.71 319.27C340.55 319.72 338.82 320.4 338.09 320.63C334.04 321.9 329.89 322.84 325.77 323.85C321.48 324.89 317.73 325.85 314.14 327.57C309.87 328.8 305.8 330.28 302.61 333.76C295.45 341.56 295.29 352.34 302.36 360.27C305.62 363.93 310.08 365.95 314.82 366.76C325.48 368.59 335.75 369.22 346.22 366.17C358.62 362.57 369.89 357.02 379.86 348.81C389.12 341.19 396.85 329.95 399.65 318.18C403.68 301.28 401.31 285.49 394.67 269.68Z" fill="#6453ED"/>
<path d="M310.98 202.46C307.07 193.37 302.92 186.75 296.57 182.96C281.68 174.09 265.58 171.01 250.1 166.73C249.42 166.54 248.78 166.52 248.2 166.63C247.61 166.52 246.98 166.54 246.3 166.73C230.82 171.01 214.72 174.08 199.83 182.96C193.47 186.75 189.33 193.37 185.42 202.46C182.72 208.74 179.96 216.19 178.96 224.09L184.16 344.39L318.13 342.82L317.47 224.09C316.45 216.18 313.68 208.74 310.98 202.46Z" fill="#6453ED"/>
<mask id="mask0_14_3" style="mask-type:luminance" maskUnits="userSpaceOnUse" x="168" y="75" width="161" height="125">
<path d="M328.79 130.8C328.79 130.8 292.85 199.5 248.53 199.5C204.2 199.5 168.27 130.8 168.27 130.8C168.27 130.8 204.21 75.1 248.53 75.1C292.85 75.1 328.79 130.8 328.79 130.8Z" fill="white"/>
</mask>
<g mask="url(#mask0_14_3)">
<path d="M328.79 130.8C328.79 130.8 292.85 199.5 248.53 199.5C204.2 199.5 168.27 130.8 168.27 130.8C168.27 130.8 204.21 75.1 248.53 75.1C292.85 75.1 328.79 130.8 328.79 130.8Z" fill="#3E1774"/>
</g>
<mask id="mask1_14_3" style="mask-type:luminance" maskUnits="userSpaceOnUse" x="168" y="75" width="161" height="125">
<path d="M328.79 130.8C328.79 130.8 292.85 199.5 248.53 199.5C204.2 199.5 168.27 130.8 168.27 130.8C168.27 130.8 204.21 75.1 248.53 75.1C292.85 75.1 328.79 130.8 328.79 130.8Z" fill="white"/>
</mask>
<g mask="url(#mask1_14_3)">
<path d="M264.59 166.56H232.47V217.26H264.59V166.56Z" fill="#EF8C48"/>
</g>
<mask id="mask2_14_3" style="mask-type:luminance" maskUnits="userSpaceOnUse" x="168" y="75" width="161" height="125">
<path d="M328.79 130.8C328.79 130.8 292.85 199.5 248.53 199.5C204.2 199.5 168.27 130.8 168.27 130.8C168.27 130.8 204.21 75.1 248.53 75.1C292.85 75.1 328.79 130.8 328.79 130.8Z" fill="white"/>
</mask>
<g mask="url(#mask2_14_3)">
<mask id="mask3_14_3" style="mask-type:luminance" maskUnits="userSpaceOnUse" x="232" y="166" width="33" height="52">
<path d="M264.59 166.56H232.47V217.26H264.59V166.56Z" fill="white"/>
</mask>
<g mask="url(#mask3_14_3)">
<path opacity="0.4" d="M300.34 124.4C300.34 161.69 276.92 191.91 248.04 191.91C219.15 191.91 195.74 161.68 195.74 124.4C195.74 87.12 219.16 56.89 248.05 56.9C276.93 56.9 300.34 87.13 300.34 124.4Z" fill="#3E1774"/>
</g>
</g>
<mask id="mask4_14_3" style="mask-type:luminance" maskUnits="userSpaceOnUse" x="168" y="75" width="161" height="125">
<path d="M328.79 130.8C328.79 130.8 292.85 199.5 248.53 199.5C204.2 199.5 168.27 130.8 168.27 130.8C168.27 130.8 204.21 75.1 248.53 75.1C292.85 75.1 328.79 130.8 328.79 130.8Z" fill="white"/>
</mask>
<g mask="url(#mask4_14_3)">
<path d="M300.34 112.11C300.34 149.4 276.92 179.62 248.04 179.62C219.15 179.62 195.74 149.39 195.74 112.11C195.74 74.83 219.16 44.6 248.05 44.61C276.93 44.6 300.34 74.83 300.34 112.11Z" fill="#EF8C48"/>
</g>
<mask id="mask5_14_3" style="mask-type:luminance" maskUnits="userSpaceOnUse" x="168" y="75" width="161" height="125">
<path d="M328.79 130.8C328.79 130.8 292.85 199.5 248.53 199.5C204.2 199.5 168.27 130.8 168.27 130.8C168.27 130.8 204.21 75.1 248.53 75.1C292.85 75.1 328.79 130.8 328.79 130.8Z" fill="white"/>
</mask>
<g mask="url(#mask5_14_3)">
<path d="M260.36 144.83C260.62 144.83 260.62 144.42 260.36 144.42C260.09 144.41 260.09 144.83 260.36 144.83Z" fill="#7F312F"/>
</g>
<mask id="mask6_14_3" style="mask-type:luminance" maskUnits="userSpaceOnUse" x="168" y="75" width="161" height="125">
<path d="M328.79 130.8C328.79 130.8 292.85 199.5 248.53 199.5C204.2 199.5 168.27 130.8 168.27 130.8C168.27 130.8 204.21 75.1 248.53 75.1C292.85 75.1 328.79 130.8 328.79 130.8Z" fill="white"/>
</mask>
<g mask="url(#mask6_14_3)">
<path d="M236.7 145.36C236.96 145.36 236.96 144.95 236.7 144.95C236.43 144.95 236.43 145.36 236.7 145.36Z" fill="#7F312F"/>
</g>
<mask id="mask7_14_3" style="mask-type:luminance" maskUnits="userSpaceOnUse" x="168" y="75" width="161" height="125">
<path d="M328.79 130.8C328.79 130.8 292.85 199.5 248.53 199.5C204.2 199.5 168.27 130.8 168.27 130.8C168.27 130.8 204.21 75.1 248.53 75.1C292.85 75.1 328.79 130.8 328.79 130.8Z" fill="white"/>
</mask>
<g mask="url(#mask7_14_3)">
<path d="M313 103.86C300.91 102.66 288.68 103.09 276.54 103.11H220.5C208.36 103.09 196.13 102.67 184.04 103.86C180.54 104.21 180.32 108.66 183.35 109.54C182.02 116.7 185.56 126.64 190.38 131.11C191.23 131.9 192.16 132.28 193.08 132.36C194.37 134.99 197.57 136.83 201.01 135.17C211.75 129.99 223.56 135.69 234.54 131.64C241.35 129.13 245.83 124.44 248.52 118.51C251.21 124.44 255.69 129.13 262.5 131.64C273.48 135.69 285.29 130 296.03 135.17C299.47 136.83 302.67 134.98 303.96 132.36C304.87 132.28 305.8 131.9 306.66 131.11C311.48 126.65 315.02 116.71 313.69 109.54C316.73 108.66 316.5 104.21 313 103.86Z" fill="#3E1774"/>
<path d="M284.09 112.11L260.58 114.84C260.58 114.84 268.62 130.22 284.09 112.11Z" fill="white"/>
<path d="M212.96 112.11L236.47 114.84C236.48 114.84 228.43 130.22 212.96 112.11Z" fill="white"/>
</g>
<mask id="mask8_14_3" style="mask-type:luminance" maskUnits="userSpaceOnUse" x="168" y="75" width="161" height="125">
<path d="M328.79 130.8C328.79 130.8 292.85 199.5 248.53 199.5C204.2 199.5 168.27 130.8 168.27 130.8C168.27 130.8 204.21 75.1 248.53 75.1C292.85 75.1 328.79 130.8 328.79 130.8Z" fill="white"/>
</mask>
<g mask="url(#mask8_14_3)">
<path opacity="0.4" d="M248.53 115.41C280.73 115.41 309.48 116.07 328.39 131.55C328.65 131.07 328.79 130.8 328.79 130.8C328.79 130.8 292.85 75.1 248.53 75.1C204.2 75.1 168.27 130.8 168.27 130.8C168.27 130.8 168.41 131.06 168.67 131.55C187.57 116.07 216.32 115.41 248.53 115.41Z" fill="#3E1774"/>
</g>
<mask id="mask9_14_3" style="mask-type:luminance" maskUnits="userSpaceOnUse" x="168" y="75" width="161" height="125">
<path d="M328.79 130.8C328.79 130.8 292.85 199.5 248.53 199.5C204.2 199.5 168.27 130.8 168.27 130.8C168.27 130.8 204.21 75.1 248.53 75.1C292.85 75.1 328.79 130.8 328.79 130.8Z" fill="white"/>
</mask>
<g mask="url(#mask9_14_3)">
<path d="M285.36 64.43C280.58 59.53 274.42 56 268.35 52.98C260.85 49.25 252 45.69 243.49 47.25C237.53 48.35 231 53.42 228.74 58.96C227.15 62.86 228.23 66.52 230.6 68.92C233.05 80.45 239.26 92.01 250.7 96.58C254.84 98.23 259.01 95.96 261.28 92.55C261.7 91.92 262.03 91.24 262.3 90.53C268.62 95.78 275.97 99.81 283.98 97.91C290.64 96.33 294.58 89.22 295.07 82.92C295.62 75.71 290 69.19 285.36 64.43Z" fill="#240A4C"/>
</g>
<path opacity="0.3" d="M214.76 209.16C214.76 211.89 212.55 214.11 209.81 214.11C207.08 214.11 204.86 211.9 204.86 209.16C204.86 206.43 207.07 204.21 209.81 204.21C212.54 204.22 214.76 206.43 214.76 209.16Z" fill="#3E1774"/>
<path d="M209.81 209.16V269.59" stroke="white" stroke-width="4" stroke-miterlimit="10" stroke-linecap="round" stroke-linejoin="round"/>
<path opacity="0.3" d="M292.19 209.16C292.19 211.89 289.98 214.11 287.24 214.11C284.51 214.11 282.29 211.9 282.29 209.16C282.29 206.43 284.51 204.21 287.24 204.21C289.97 204.22 292.19 206.43 292.19 209.16Z" fill="#3E1774"/>
<path d="M287.24 209.16V269.59" stroke="white" stroke-width="4" stroke-miterlimit="10" stroke-linecap="round" stroke-linejoin="round"/>
<g opacity="0.3">
<path d="M241.87 132.5C241.41 134.45 241.92 136.54 243.42 137.93C243.78 138.27 244.19 138.57 244.63 138.81C244.89 138.95 245.16 139.07 245.43 139.17C245.5 139.2 245.56 139.26 245.4 139.16C245.14 138.98 245.53 139.22 245.69 139.28C245.8 139.32 245.91 139.37 246.03 139.4C247.19 139.78 248.31 139.65 249.41 139.17C249.97 138.93 250.46 138.56 250.87 138.11C251.11 137.85 251.33 137.56 251.53 137.26C251.87 136.76 251.85 136.27 251.77 135.7C251.68 135.02 250.83 134.7 250.25 134.83C249.87 134.92 249.56 135.07 249.26 135.33C249.19 135.39 249.12 135.46 249.05 135.52C249.01 135.55 248.98 135.58 248.94 135.61C248.78 135.75 248.99 135.55 249.04 135.53C248.89 135.57 248.7 135.76 248.56 135.83C248.39 135.92 248.2 135.99 248.03 136.09C247.89 136.18 248.26 136 248.24 136C248.2 136.01 248.16 136.03 248.13 136.04C248.04 136.07 247.95 136.1 247.86 136.13C247.69 136.18 247.52 136.21 247.35 136.25C247.18 136.29 247.02 136.32 246.85 136.35C246.78 136.36 246.69 136.37 246.62 136.39C247.07 136.24 246.85 136.36 246.66 136.37C246.49 136.38 246.32 136.37 246.15 136.37C246.14 136.37 246.03 136.36 246.03 136.36C246.03 136.34 246.36 136.43 246.22 136.38C246.13 136.35 246.04 136.34 245.95 136.32C245.78 136.28 245.62 136.22 245.46 136.16C245.21 136.07 245.56 136.21 245.49 136.17C245.4 136.12 245.3 136.08 245.2 136.03C245.05 135.95 244.9 135.85 244.76 135.76C244.64 135.68 244.61 135.64 244.75 135.76C244.68 135.7 244.6 135.64 244.53 135.58C244.4 135.46 244.27 135.34 244.15 135.21C244.1 135.15 244.04 135.09 243.99 135.03C244.14 135.21 243.96 134.99 243.92 134.92C243.8 134.75 243.7 134.56 243.61 134.38C243.52 134.19 243.61 134.4 243.55 134.26C243.52 134.16 243.48 134.07 243.45 133.97C243.3 133.5 243.28 133.2 243.3 132.68C243.34 131.87 242.06 131.69 241.87 132.5Z" fill="#7F312F"/>
</g>
<path d="M239.8 151.84C241.57 152.04 243.3 152.3 245.03 152.45C246.75 152.6 248.47 152.64 250.13 152.45C251.79 152.26 253.4 151.84 254.8 151.06C255.51 150.69 256.13 150.19 256.71 149.65C256.97 149.35 257.3 149.12 257.56 148.82C257.82 148.52 258.11 148.24 258.54 148.03L259.73 148.82C259.5 149.8 258.82 150.53 258.12 151.19C257.4 151.84 256.58 152.38 255.73 152.81C254.01 153.69 252.14 154.1 250.3 154.24C246.61 154.52 243.05 153.79 239.62 153.26L239.8 151.84Z" fill="#7F312F"/>
<path d="M446.02 251.33C446.02 257.81 440.77 263.07 434.28 263.07H380.98C374.5 263.07 369.24 257.82 369.24 251.33V156.42C369.24 149.94 374.49 144.68 380.98 144.68H434.28C440.76 144.68 446.02 149.93 446.02 156.42V251.33Z" fill="#7EACFE"/>
<path d="M439.62 151.27H375.66V248.18H439.62V151.27Z" fill="#3E1774"/>
<path opacity="0.6" d="M411.67 255.06C411.67 257.29 409.86 259.09 407.64 259.09C405.41 259.09 403.61 257.28 403.61 255.06C403.61 252.83 405.42 251.03 407.64 251.03C409.86 251.03 411.67 252.83 411.67 255.06Z" fill="white"/>
<path d="M434.27 214.7L411.14 174.64C410.41 173.38 409.07 172.61 407.62 172.61C406.17 172.61 404.83 173.38 404.1 174.64L380.85 214.92C380.12 216.18 380.12 217.72 380.85 218.98C381.58 220.24 382.92 221.01 384.37 221.01H430.88H430.89C433.13 221.01 434.95 219.19 434.95 216.95C434.96 216.11 434.71 215.34 434.27 214.7Z" fill="url(#paint0_linear_14_3)"/>
<path d="M427.24 210.87L410.23 181.4C409.7 180.48 408.71 179.91 407.64 179.91C406.57 179.91 405.59 180.48 405.05 181.4L387.94 211.03C387.41 211.95 387.41 213.09 387.94 214.02C388.47 214.94 389.46 215.51 390.53 215.51H424.75C424.75 215.51 424.75 215.51 424.76 215.51C426.41 215.51 427.75 214.17 427.75 212.52C427.74 211.91 427.55 211.35 427.24 210.87Z" fill="url(#paint1_linear_14_3)"/>
<path d="M404.26 210.16C404.26 208.37 405.66 207.03 407.63 207.03C409.6 207.03 411 208.36 411 210.16C411 211.92 409.6 213.36 407.63 213.36C405.66 213.36 404.26 211.91 404.26 210.16ZM404.37 188.48H410.9L409.81 204.53H405.45L404.37 188.48Z" fill="white"/>
<path d="M433.09 372.5C433.09 378.87 349.85 384.04 247.17 384.04C144.49 384.04 61.25 378.87 61.25 372.5C61.25 366.13 144.49 360.96 247.17 360.96C349.85 360.96 433.09 366.13 433.09 372.5Z" fill="#D1A4E9"/>
<path d="M140.45 368.69H356.61C360.88 368.69 364.34 365.23 364.34 360.96H132.71C132.71 365.23 136.17 368.69 140.45 368.69Z" fill="#3E1774"/>
<path d="M349.5 360.73C349.5 365.13 345.93 368.69 341.53 368.69H155.52C151.12 368.69 147.56 365.13 147.56 360.73V246.85C147.56 242.45 151.13 238.89 155.52 238.89H341.53C345.93 238.89 349.5 242.46 349.5 246.85V360.73Z" fill="#3E1774"/>
<path opacity="0.5" d="M280.37 364.83C210.78 364.83 154.37 312.67 154.37 248.32C154.37 245.16 154.51 242.02 154.78 238.92C150.73 239.3 147.56 242.7 147.56 246.85V360.73C147.56 365.13 151.13 368.69 155.52 368.69H341.53C345.93 368.69 349.5 365.13 349.5 360.73V345.73C329.65 357.8 305.9 364.83 280.37 364.83Z" fill="#3E1774"/>
<path d="M151.78 221.27C151.78 226.09 147.88 229.99 143.06 229.99H40.1299C35.3099 229.99 31.4099 226.09 31.4099 221.27V161.63C31.4099 156.81 35.3199 152.91 40.1299 152.91H143.06C147.88 152.91 151.78 156.82 151.78 161.63V221.27Z" fill="#7EACFE"/>
<mask id="mask10_14_3" style="mask-type:luminance" maskUnits="userSpaceOnUse" x="28" y="150" width="121" height="78">
<path d="M148.87 218.36C148.87 223.18 144.97 227.08 140.15 227.08H37.22C32.4 227.08 28.5 223.17 28.5 218.36V158.72C28.5 153.9 32.41 150 37.22 150H140.15C144.97 150 148.87 153.91 148.87 158.72V218.36Z" fill="white"/>
</mask>
<g mask="url(#mask10_14_3)">
<path d="M148.87 218.36C148.87 223.18 144.97 227.08 140.15 227.08H37.22C32.4 227.08 28.5 223.17 28.5 218.36V158.72C28.5 153.9 32.41 150 37.22 150H140.15C144.97 150 148.87 153.91 148.87 158.72V218.36Z" fill="white"/>
</g>
<mask id="mask11_14_3" style="mask-type:luminance" maskUnits="userSpaceOnUse" x="28" y="150" width="121" height="78">
<path d="M148.87 218.36C148.87 223.18 144.97 227.08 140.15 227.08H37.22C32.4 227.08 28.5 223.17 28.5 218.36V158.72C28.5 153.9 32.41 150 37.22 150H140.15C144.97 150 148.87 153.91 148.87 158.72V218.36Z" fill="white"/>
</mask>
<g mask="url(#mask11_14_3)">
<path d="M181.24 122.74H0V165.12H181.24V122.74Z" fill="#523EEA"/>
</g>
<path d="M49.3299 196.18L52.2999 197.79L50.9699 200.02L47.9699 198.25L48.0299 201.55H45.4699L45.4999 198.22L42.4999 200.02L41.1899 197.79L44.1599 196.18L41.1899 194.55L42.4999 192.32L45.4999 194.12L45.4699 190.8H48.0299L47.9699 194.12L50.9699 192.32L52.2999 194.55L49.3299 196.18Z" fill="#3E1774"/>
<path d="M70.2999 196.18L73.2699 197.79L71.9399 200.02L68.9399 198.25L68.9999 201.55H66.4399L66.4699 198.22L63.4699 200.02L62.1599 197.79L65.1299 196.18L62.1599 194.55L63.4699 192.32L66.4699 194.12L66.4399 190.8H68.9999L68.9399 194.12L71.9399 192.32L73.2699 194.55L70.2999 196.18Z" fill="#3E1774"/>
<path d="M91.2699 196.18L94.2399 197.79L92.9099 200.02L89.9099 198.25L89.9699 201.55H87.3999L87.4299 198.22L84.4299 200.02L83.1199 197.79L86.0899 196.18L83.1199 194.55L84.4299 192.32L87.4299 194.12L87.3999 190.8H89.9599L89.8999 194.12L92.8999 192.32L94.2299 194.55L91.2699 196.18Z" fill="#3E1774"/>
<path d="M112.23 196.18L115.2 197.79L113.87 200.02L110.87 198.25L110.92 201.55H108.36L108.39 198.22L105.39 200.02L104.08 197.79L107.05 196.18L104.08 194.55L105.39 192.32L108.39 194.12L108.36 190.8H110.92L110.87 194.12L113.87 192.32L115.2 194.55L112.23 196.18Z" fill="#3E1774"/>
<path d="M133.2 196.18L136.17 197.79L134.84 200.02L131.84 198.25L131.89 201.55H129.33L129.36 198.22L126.36 200.02L125.05 197.79L128.02 196.18L125.05 194.55L126.36 192.32L129.36 194.12L129.33 190.8H131.89L131.84 194.12L134.84 192.32L136.17 194.55L133.2 196.18Z" fill="#3E1774"/>
<path d="M27.0299 232.61L23.1199 230.66L34.2899 208.23L38.1999 210.17L27.0299 232.61Z" fill="url(#paint2_linear_14_3)"/>
<path d="M27.9999 235.55L20.1899 231.66L28.7399 214.49L36.5499 218.38L27.9999 235.55Z" fill="url(#paint3_linear_14_3)"/>
<path d="M42.8098 212.84C33.2998 212.84 25.5698 205.11 25.5698 195.6C25.5698 186.09 33.2998 178.36 42.8098 178.36C52.3198 178.36 60.0498 186.09 60.0498 195.6C60.0498 205.11 52.3198 212.84 42.8098 212.84ZM42.8098 182.73C35.7098 182.73 29.9298 188.51 29.9298 195.61C29.9298 202.71 35.7098 208.49 42.8098 208.49C49.9098 208.49 55.6898 202.71 55.6898 195.61C55.6898 188.5 49.9098 182.73 42.8098 182.73Z" fill="url(#paint4_linear_14_3)"/>
<path d="M116.65 158.57C116.65 159.41 115.97 160.1 115.12 160.1C114.28 160.1 113.59 159.42 113.59 158.57C113.59 157.73 114.27 157.04 115.12 157.04C115.97 157.04 116.65 157.72 116.65 158.57Z" fill="#F7F4FD"/>
<path d="M128.42 158.57C128.42 159.41 127.74 160.1 126.89 160.1C126.05 160.1 125.36 159.42 125.36 158.57C125.36 157.73 126.04 157.04 126.89 157.04C127.74 157.04 128.42 157.72 128.42 158.57Z" fill="#F7F4FD"/>
<path d="M140.2 158.57C140.2 159.41 139.52 160.1 138.67 160.1C137.83 160.1 137.14 159.42 137.14 158.57C137.14 157.73 137.82 157.04 138.67 157.04C139.52 157.04 140.2 157.72 140.2 158.57Z" fill="#F7F4FD"/>
<path d="M416.05 31.42H338.18C336.48 31.42 335.1 32.8 335.1 34.49V90.9C335.1 91.89 335.57 92.81 336.37 93.39L375.31 121.59C375.85 121.98 376.48 122.17 377.11 122.17C377.74 122.17 378.38 121.97 378.91 121.59L417.85 93.39C418.65 92.81 419.12 91.89 419.12 90.9V34.49C419.13 32.79 417.75 31.42 416.05 31.42Z" fill="url(#paint5_linear_14_3)"/>
<mask id="mask12_14_3" style="mask-type:luminance" maskUnits="userSpaceOnUse" x="332" y="30" width="85" height="91">
<path d="M413.71 30.24H335.84C334.14 30.24 332.76 31.62 332.76 33.31V89.72C332.76 90.7 333.23 91.63 334.03 92.21L372.97 120.41C373.51 120.8 374.14 120.99 374.77 120.99C375.4 120.99 376.04 120.8 376.57 120.41L415.5 92.21C416.3 91.63 416.77 90.71 416.77 89.72V33.32C416.78 31.62 415.4 30.24 413.71 30.24Z" fill="white"/>
</mask>
<g mask="url(#mask12_14_3)">
<path d="M413.71 30.24H335.84C334.14 30.24 332.76 31.62 332.76 33.31V89.72C332.76 90.7 333.23 91.63 334.03 92.21L372.97 120.41C373.51 120.8 374.14 120.99 374.77 120.99C375.4 120.99 376.04 120.8 376.57 120.41L415.5 92.21C416.3 91.63 416.77 90.71 416.77 89.72V33.32C416.78 31.62 415.4 30.24 413.71 30.24Z" fill="url(#paint6_linear_14_3)"/>
</g>
<mask id="mask13_14_3" style="mask-type:luminance" maskUnits="userSpaceOnUse" x="332" y="30" width="85" height="91">
<path d="M413.71 30.24H335.84C334.14 30.24 332.76 31.62 332.76 33.31V89.72C332.76 90.7 333.23 91.63 334.03 92.21L372.97 120.41C373.51 120.8 374.14 120.99 374.77 120.99C375.4 120.99 376.04 120.8 376.57 120.41L415.5 92.21C416.3 91.63 416.77 90.71 416.77 89.72V33.32C416.78 31.62 415.4 30.24 413.71 30.24Z" fill="white"/>
</mask>
<g mask="url(#mask13_14_3)">
<path d="M439.47 0H374.75V64.72H439.47V0Z" fill="url(#paint7_linear_14_3)"/>
<path d="M374.79 64.72H310.07V129.44H374.79V64.72Z" fill="url(#paint8_linear_14_3)"/>
</g>
<mask id="mask14_14_3" style="mask-type:luminance" maskUnits="userSpaceOnUse" x="332" y="30" width="85" height="91">
<path d="M413.71 30.24H335.84C334.14 30.24 332.76 31.62 332.76 33.31V89.72C332.76 90.7 333.23 91.63 334.03 92.21L372.97 120.41C373.51 120.8 374.14 120.99 374.77 120.99C375.4 120.99 376.04 120.8 376.57 120.41L415.5 92.21C416.3 91.63 416.77 90.71 416.77 89.72V33.32C416.78 31.62 415.4 30.24 413.71 30.24Z" fill="white"/>
</mask>
<g mask="url(#mask14_14_3)">
<path d="M390.03 57.9999C386.6 52.2899 381.05 48.5699 374.77 48.5699C368.49 48.5699 362.95 52.2899 359.51 57.9999H390.03Z" fill="white"/>
<path d="M358.32 60.2399C356.78 63.5499 355.89 67.3599 355.89 71.4299C355.89 83.5899 363.75 93.5099 373.65 94.2099V63.2999H375.88V94.1999C385.78 93.4999 393.64 83.5799 393.64 71.4199C393.64 67.3499 392.75 63.5399 391.21 60.2299H358.32V60.2399Z" fill="white"/>
<path d="M347.9 53.02C347.41 58.46 352.16 63.79 357.41 64.69C359.63 65.07 360.58 61.68 358.35 61.3C354.52 60.64 351.07 57.04 351.43 53.02C351.62 50.75 348.1 50.77 347.9 53.02Z" fill="white"/>
<path d="M346.66 72.3299C350.25 75.0199 354.82 75.7299 359.17 74.8499C361.39 74.3999 360.45 71.0099 358.23 71.4599C354.75 72.1599 351.28 71.4199 348.44 69.2899C346.62 67.9299 344.87 70.9799 346.66 72.3299Z" fill="white"/>
<path d="M356.73 94.87C356.42 89.36 360.69 84.69 366.12 84.01C368.34 83.73 368.37 80.21 366.12 80.49C358.89 81.4 352.78 87.28 353.21 94.87C353.34 97.12 356.86 97.14 356.73 94.87Z" fill="white"/>
<path d="M366.34 45.94C367.86 47.74 369.52 49.42 371.03 51.22C372.49 52.96 374.97 50.45 373.52 48.73C372 46.93 370.34 45.25 368.83 43.45C367.37 41.71 364.89 44.22 366.34 45.94Z" fill="white"/>
<path d="M401.64 53.02C402.13 58.46 397.38 63.79 392.13 64.69C389.91 65.07 388.96 61.68 391.2 61.3C395.03 60.64 398.48 57.04 398.12 53.02C397.91 50.75 401.44 50.77 401.64 53.02Z" fill="white"/>
<path d="M402.88 72.3299C399.29 75.0199 394.72 75.7299 390.38 74.8499C388.16 74.3999 389.1 71.0099 391.32 71.4599C394.8 72.1599 398.27 71.4199 401.11 69.2899C402.92 67.9299 404.67 70.9799 402.88 72.3299Z" fill="white"/>
<path d="M392.81 94.87C393.12 89.36 388.85 84.69 383.42 84.01C381.2 83.73 381.17 80.21 383.42 80.49C390.66 81.4 396.76 87.28 396.33 94.87C396.2 97.12 392.68 97.14 392.81 94.87Z" fill="white"/>
<path d="M383.19 45.94C381.67 47.74 380.01 49.42 378.5 51.22C377.04 52.96 374.56 50.45 376.01 48.73C377.53 46.93 379.19 45.25 380.7 43.45C382.17 41.71 384.65 44.22 383.19 45.94Z" fill="white"/>
</g>
<path d="M68.6699 46.93C71.6899 51.37 76.5199 56.78 82.4499 54.19C84.8099 53.16 86.7099 51.24 88.3299 49.29C90.3699 46.84 92.1199 44.16 93.8299 41.48C97.4799 35.78 102.13 29.89 108.98 28C116.02 26.06 121.86 31.22 123.79 37.72C125.88 44.78 124.54 52.28 124.67 59.51C124.69 60.8 126.69 60.8 126.67 59.51C126.55 52.95 127.51 46.35 126.34 39.83C125.22 33.59 121.27 27.1 114.6 25.79C108 24.49 101.7 28.73 97.3899 33.3C92.8099 38.16 90.2299 44.5 85.6099 49.33C83.8499 51.17 81.5399 53.09 78.8199 52.86C75.0899 52.54 72.2999 48.72 70.3899 45.9C69.6799 44.86 67.9499 45.86 68.6699 46.93Z" fill="#7EACFE"/>
<path d="M133.27 48.03H112.05V61.36H133.27V48.03Z" fill="#3E1774"/>
<path d="M159.33 92.78C159.33 113.03 142.91 129.45 122.66 129.45C102.41 129.45 85.9897 113.03 85.9897 92.78C85.9897 72.53 102.41 56.11 122.66 56.11C142.91 56.11 159.33 72.52 159.33 92.78Z" fill="#3E1774"/>
<path opacity="0.4" d="M132.34 114.74C112.09 114.74 95.6697 98.3199 95.6697 78.0699C95.6697 73.7999 96.4097 69.6899 97.7497 65.8799C90.5197 72.5799 85.9897 82.1499 85.9897 92.7799C85.9897 113.03 102.41 129.45 122.66 129.45C138.64 129.45 152.22 119.23 157.25 104.97C150.71 111.03 141.96 114.74 132.34 114.74Z" fill="#3E1774"/>
<path d="M143.13 78.56C148.43 78.56 148.43 70.34 143.13 70.34C137.83 70.35 137.83 78.56 143.13 78.56Z" fill="white"/>
<path d="M146 85.06C147.88 87.71 148.41 90.48 148.48 93.69C148.56 97.47 154.43 97.48 154.35 93.69C154.26 89.53 153.52 85.55 151.07 82.1C148.9 79.04 143.81 81.97 146 85.06Z" fill="white"/>
<path d="M74.2998 48.29L80.8198 50.45L74.3698 45.83L88.6598 38.65L73.7498 41.11L78.3498 34.85L71.4698 39.91L69.1098 24.46L66.9998 38.31L62.7498 32.38L65.6998 41.31L49.5698 38.65L61.4098 44.6L55.5698 46.46L64.9098 46.4L57.0398 61.63L66.7798 51.77L66.7398 57.63L69.2998 49.6L81.1898 61.63L74.2998 48.29Z" fill="url(#paint9_linear_14_3)"/>
<mask id="mask15_14_3" style="mask-type:luminance" maskUnits="userSpaceOnUse" x="31" y="282" width="91" height="38">
<path d="M121.47 300.96C121.47 300.96 101.23 319.43 76.25 319.43C51.28 319.43 31.03 300.96 31.03 300.96C31.03 300.96 51.27 282.49 76.25 282.49C101.22 282.49 121.47 300.96 121.47 300.96Z" fill="white"/>
</mask>
<g mask="url(#mask15_14_3)">
<path d="M121.47 300.96C121.47 300.96 101.23 319.43 76.25 319.43C51.28 319.43 31.03 300.96 31.03 300.96C31.03 300.96 51.27 282.49 76.25 282.49C101.22 282.49 121.47 300.96 121.47 300.96Z" fill="#3E1774"/>
</g>
<mask id="mask16_14_3" style="mask-type:luminance" maskUnits="userSpaceOnUse" x="31" y="282" width="91" height="38">
<path d="M121.47 300.96C121.47 300.96 101.23 319.43 76.25 319.43C51.28 319.43 31.03 300.96 31.03 300.96C31.03 300.96 51.27 282.49 76.25 282.49C101.22 282.49 121.47 300.96 121.47 300.96Z" fill="white"/>
</mask>
<g mask="url(#mask16_14_3)">
<path d="M99.9301 300.96C99.9301 314.04 89.3301 324.64 76.2501 324.64C63.1701 324.64 52.5701 314.04 52.5701 300.96C52.5701 287.88 63.1701 277.28 76.2501 277.28C89.3301 277.28 99.9301 287.88 99.9301 300.96Z" fill="url(#paint10_linear_14_3)"/>
</g>
<mask id="mask17_14_3" style="mask-type:luminance" maskUnits="userSpaceOnUse" x="31" y="282" width="91" height="38">
<path d="M121.47 300.96C121.47 300.96 101.23 319.43 76.25 319.43C51.28 319.43 31.03 300.96 31.03 300.96C31.03 300.96 51.27 282.49 76.25 282.49C101.22 282.49 121.47 300.96 121.47 300.96Z" fill="white"/>
</mask>
<g mask="url(#mask17_14_3)">
<path d="M76.2501 313.1C82.9548 313.1 88.3901 307.665 88.3901 300.96C88.3901 294.255 82.9548 288.82 76.2501 288.82C69.5454 288.82 64.1101 294.255 64.1101 300.96C64.1101 307.665 69.5454 313.1 76.2501 313.1Z" fill="#3E1774"/>
</g>
<path d="M86.0401 297.88C91.0001 297.88 91.0001 290.18 86.0401 290.18C81.0801 290.18 81.0801 297.88 86.0401 297.88Z" fill="white"/>
<mask id="mask18_14_3" style="mask-type:luminance" maskUnits="userSpaceOnUse" x="366" y="272" width="101" height="64">
<path d="M458.44 272.42C446.34 271.63 439.23 280.41 436.18 291.11C434.77 296.07 434.08 301.23 432.98 306.26C431.97 310.92 430.54 315.17 428.8 317.08C427.47 318.54 427.73 318.21 425.64 318.72C424.97 318.89 421.23 318.69 419.29 318.05C415.36 316.76 408.39 311.73 403.53 309.07C397.62 305.84 390.52 302.61 383.61 303.45C374.95 304.5 369.95 310.44 367.19 318.34C363.69 328.37 379.56 332.64 383.04 322.7C384.59 318.27 386.74 319.62 390.58 320.99C396.35 323.05 401.62 327 406.88 330.06C417.29 336.11 429.43 337.49 439.32 329.73C446.93 323.76 448.58 312.19 450.28 303.35C450.73 300.99 451.22 298.64 451.8 296.3C452.65 292.93 454.15 288.56 458.43 288.84C469.03 289.54 468.96 273.11 458.44 272.42Z" fill="white"/>
</mask>
<g mask="url(#mask18_14_3)">
<path d="M458.44 272.42C446.34 271.63 439.23 280.41 436.18 291.11C434.77 296.07 434.08 301.23 432.98 306.26C431.97 310.92 430.54 315.17 428.8 317.08C427.47 318.54 427.73 318.21 425.64 318.72C424.97 318.89 421.23 318.69 419.29 318.05C415.36 316.76 408.39 311.73 403.53 309.07C397.62 305.84 390.52 302.61 383.61 303.45C374.95 304.5 369.95 310.44 367.19 318.34C363.69 328.37 379.56 332.64 383.04 322.7C384.59 318.27 386.74 319.62 390.58 320.99C396.35 323.05 401.62 327 406.88 330.06C417.29 336.11 429.43 337.49 439.32 329.73C446.93 323.76 448.58 312.19 450.28 303.35C450.73 300.99 451.22 298.64 451.8 296.3C452.65 292.93 454.15 288.56 458.43 288.84C469.03 289.54 468.96 273.11 458.44 272.42Z" fill="#FF5EB1"/>
</g>
<mask id="mask19_14_3" style="mask-type:luminance" maskUnits="userSpaceOnUse" x="366" y="272" width="101" height="64">
<path d="M458.44 272.42C446.34 271.63 439.23 280.41 436.18 291.11C434.77 296.07 434.08 301.23 432.98 306.26C431.97 310.92 430.54 315.17 428.8 317.08C427.47 318.54 427.73 318.21 425.64 318.72C424.97 318.89 421.23 318.69 419.29 318.05C415.36 316.76 408.39 311.73 403.53 309.07C397.62 305.84 390.52 302.61 383.61 303.45C374.95 304.5 369.95 310.44 367.19 318.34C363.69 328.37 379.56 332.64 383.04 322.7C384.59 318.27 386.74 319.62 390.58 320.99C396.35 323.05 401.62 327 406.88 330.06C417.29 336.11 429.43 337.49 439.32 329.73C446.93 323.76 448.58 312.19 450.28 303.35C450.73 300.99 451.22 298.64 451.8 296.3C452.65 292.93 454.15 288.56 458.43 288.84C469.03 289.54 468.96 273.11 458.44 272.42Z" fill="white"/>
</mask>
<g mask="url(#mask19_14_3)">
<path d="M419.38 313.18C424.47 314.08 427.18 318.79 428.73 323.31C429.22 324.73 431.49 324.12 430.99 322.69C429.18 317.43 425.91 311.96 420 310.92C418.52 310.65 417.89 312.92 419.38 313.18Z" fill="#3E1774"/>
</g>
<mask id="mask20_14_3" style="mask-type:luminance" maskUnits="userSpaceOnUse" x="366" y="272" width="101" height="64">
<path d="M458.44 272.42C446.34 271.63 439.23 280.41 436.18 291.11C434.77 296.07 434.08 301.23 432.98 306.26C431.97 310.92 430.54 315.17 428.8 317.08C427.47 318.54 427.73 318.21 425.64 318.72C424.97 318.89 421.23 318.69 419.29 318.05C415.36 316.76 408.39 311.73 403.53 309.07C397.62 305.84 390.52 302.61 383.61 303.45C374.95 304.5 369.95 310.44 367.19 318.34C363.69 328.37 379.56 332.64 383.04 322.7C384.59 318.27 386.74 319.62 390.58 320.99C396.35 323.05 401.62 327 406.88 330.06C417.29 336.11 429.43 337.49 439.32 329.73C446.93 323.76 448.58 312.19 450.28 303.35C450.73 300.99 451.22 298.64 451.8 296.3C452.65 292.93 454.15 288.56 458.43 288.84C469.03 289.54 468.96 273.11 458.44 272.42Z" fill="white"/>
</mask>
<g mask="url(#mask20_14_3)">
<path d="M424.39 306.96C430.65 307.22 434.62 313.22 437.46 318.11C438.22 319.42 440.25 318.24 439.49 316.92C436.18 311.22 431.59 304.9 424.39 304.6C422.87 304.55 422.88 306.9 424.39 306.96Z" fill="#3E1774"/>
</g>
<mask id="mask21_14_3" style="mask-type:luminance" maskUnits="userSpaceOnUse" x="366" y="272" width="101" height="64">
<path d="M458.44 272.42C446.34 271.63 439.23 280.41 436.18 291.11C434.77 296.07 434.08 301.23 432.98 306.26C431.97 310.92 430.54 315.17 428.8 317.08C427.47 318.54 427.73 318.21 425.64 318.72C424.97 318.89 421.23 318.69 419.29 318.05C415.36 316.76 408.39 311.73 403.53 309.07C397.62 305.84 390.52 302.61 383.61 303.45C374.95 304.5 369.95 310.44 367.19 318.34C363.69 328.37 379.56 332.64 383.04 322.7C384.59 318.27 386.74 319.62 390.58 320.99C396.35 323.05 401.62 327 406.88 330.06C417.29 336.11 429.43 337.49 439.32 329.73C446.93 323.76 448.58 312.19 450.28 303.35C450.73 300.99 451.22 298.64 451.8 296.3C452.65 292.93 454.15 288.56 458.43 288.84C469.03 289.54 468.96 273.11 458.44 272.42Z" fill="white"/>
</mask>
<g mask="url(#mask21_14_3)">
<path d="M457.25 282.71C461.79 282.71 461.79 275.67 457.25 275.67C452.71 275.67 452.71 282.71 457.25 282.71Z" fill="#3E1774"/>
</g>
<mask id="mask22_14_3" style="mask-type:luminance" maskUnits="userSpaceOnUse" x="366" y="272" width="101" height="64">
<path d="M458.44 272.42C446.34 271.63 439.23 280.41 436.18 291.11C434.77 296.07 434.08 301.23 432.98 306.26C431.97 310.92 430.54 315.17 428.8 317.08C427.47 318.54 427.73 318.21 425.64 318.72C424.97 318.89 421.23 318.69 419.29 318.05C415.36 316.76 408.39 311.73 403.53 309.07C397.62 305.84 390.52 302.61 383.61 303.45C374.95 304.5 369.95 310.44 367.19 318.34C363.69 328.37 379.56 332.64 383.04 322.7C384.59 318.27 386.74 319.62 390.58 320.99C396.35 323.05 401.62 327 406.88 330.06C417.29 336.11 429.43 337.49 439.32 329.73C446.93 323.76 448.58 312.19 450.28 303.35C450.73 300.99 451.22 298.64 451.8 296.3C452.65 292.93 454.15 288.56 458.43 288.84C469.03 289.54 468.96 273.11 458.44 272.42Z" fill="white"/>
</mask>
<g mask="url(#mask22_14_3)">
<path d="M464.92 276.15C465.42 280.61 462.82 285.29 457.08 284.91C452.8 284.63 451.29 289.01 450.45 292.37C449.86 294.7 449.38 297.06 448.93 299.42C447.24 308.27 445.58 319.83 437.97 325.8C428.09 333.56 415.94 332.18 405.53 326.13C400.26 323.07 394.99 319.12 389.23 317.06C385.39 315.69 383.24 314.35 381.69 318.77C379.18 325.96 370.19 325.71 366.72 321.24C366.84 329.11 379.94 331.64 383.06 322.71C384.61 318.28 386.76 319.63 390.6 321C396.37 323.06 401.64 327.01 406.9 330.07C417.31 336.12 429.45 337.5 439.34 329.74C446.95 323.77 448.6 312.2 450.3 303.36C450.75 301 451.24 298.65 451.82 296.31C452.67 292.94 454.17 288.57 458.45 288.85C465.98 289.34 468.11 281.15 464.92 276.15Z" fill="#FF5EB1"/>
</g>
<path d="M155.46 137.98C155.46 140.01 153.81 141.66 151.78 141.66C149.75 141.66 148.1 140.01 148.1 137.98C148.1 135.95 149.75 134.3 151.78 134.3C153.81 134.3 155.46 135.95 155.46 137.98Z" stroke="white" stroke-width="3" stroke-miterlimit="10"/>
<g opacity="0.5">
<path d="M318.11 43.47C315.26 43.47 312.93 41.15 312.93 38.29C312.93 35.43 315.25 33.11 318.11 33.11C320.97 33.11 323.29 35.43 323.29 38.29C323.29 41.15 320.96 43.47 318.11 43.47ZM318.11 36.11C316.91 36.11 315.93 37.09 315.93 38.29C315.93 39.49 316.91 40.47 318.11 40.47C319.31 40.47 320.29 39.49 320.29 38.29C320.29 37.09 319.31 36.11 318.11 36.11Z" fill="#BF9DE9"/>
</g>
<path opacity="0.5" d="M32.0499 272.37C32.0499 274.4 30.3999 276.05 28.3699 276.05C26.3399 276.05 24.6899 274.4 24.6899 272.37C24.6899 270.34 26.3399 268.69 28.3699 268.69C30.3999 268.69 32.0499 270.34 32.0499 272.37Z" fill="#BF9DE9"/>
<path opacity="0.5" d="M422.8 132.7C422.8 134.73 421.15 136.38 419.12 136.38C417.09 136.38 415.44 134.73 415.44 132.7C415.44 130.67 417.09 129.02 419.12 129.02C421.16 129.02 422.8 130.66 422.8 132.7Z" fill="#BF9DE9"/>
<path d="M341.36 178.41H338.36V187.91H341.36V178.41Z" fill="white"/>
<path d="M344.61 181.66H335.11V184.66H344.61V181.66Z" fill="white"/>
<g opacity="0.5">
<path d="M169.76 38.29H166.76V47.79H169.76V38.29Z" fill="#BF9DE9"/>
<path d="M173.01 41.54H163.51V44.54H173.01V41.54Z" fill="#BF9DE9"/>
</g>
<g opacity="0.5">
<path d="M69.0999 335.09H66.0999V344.59H69.0999V335.09Z" fill="#BF9DE9"/>
<path d="M72.3499 338.34H62.8499V341.34H72.3499V338.34Z" fill="#BF9DE9"/>
</g>
<path d="M91.7999 259.26H80.1699V262.26H91.7999V259.26Z" fill="white"/>
<path d="M91.7999 264.14H80.1699V267.14H91.7999V264.14Z" fill="white"/>
<path d="M362.41 126.18C364.99 126.18 364.99 122.18 362.41 122.18C359.83 122.18 359.83 126.18 362.41 126.18Z" fill="white"/>
<path d="M105.91 241.38C108.49 241.38 108.49 237.38 105.91 237.38C103.33 237.38 103.33 241.38 105.91 241.38Z" fill="white"/>
<g opacity="0.5">
<path d="M69.54 112.69C72.12 112.69 72.12 108.69 69.54 108.69C66.96 108.69 66.96 112.69 69.54 112.69Z" fill="#BF9DE9"/>
</g>
<g opacity="0.5">
<path d="M433.09 354.64C435.67 354.64 435.67 350.64 433.09 350.64C430.51 350.64 430.51 354.64 433.09 354.64Z" fill="#BF9DE9"/>
</g>
<path d="M272.23 282.86C272.23 272 261.6 263.2 248.48 263.2C235.36 263.2 224.73 272 224.73 282.86C224.73 291.2 231.01 298.33 239.86 301.18V305.08C239.86 306.85 241.3 308.29 243.07 308.29C244.21 308.29 245.21 307.69 245.77 306.79C246.34 307.69 247.33 308.29 248.47 308.29C249.61 308.29 250.61 307.69 251.18 306.79C251.75 307.69 252.74 308.29 253.89 308.29C255.66 308.29 257.1 306.85 257.1 305.08V301.18C265.95 298.33 272.23 291.21 272.23 282.86Z" fill="white"/>
<path d="M242.17 275.32C239.36 274.46 235.2 274.73 233.45 275.98C230.42 278.16 230 283.08 232.41 285.79C235.09 288.79 240 287.74 242.41 285.04C244.32 282.89 246.71 278.86 244.29 276.46C243.8 275.97 243.06 275.59 242.17 275.32Z" fill="#3E1774"/>
<path d="M252.75 276.46C250.33 278.86 252.72 282.89 254.63 285.04C257.04 287.75 261.95 288.8 264.63 285.79C267.05 283.08 266.62 278.15 263.59 275.98C261.85 274.73 257.68 274.47 254.87 275.32C254 275.59 253.25 275.97 252.75 276.46Z" fill="#3E1774"/>
<path d="M246.83 291.84C247 291.46 247.11 290.9 247.24 290.6C247.52 289.98 247.42 289.27 246.8 288.91C246.26 288.6 245.38 288.74 245.1 289.35C244.93 289.73 244.82 290.29 244.69 290.59C244.41 291.21 244.51 291.92 245.13 292.28C245.67 292.6 246.55 292.46 246.83 291.84Z" fill="#3E1774"/>
<path d="M250.22 291.84C250.05 291.46 249.94 290.9 249.81 290.6C249.53 289.98 249.63 289.27 250.25 288.91C250.79 288.6 251.67 288.74 251.95 289.35C252.12 289.73 252.23 290.29 252.36 290.59C252.63 291.21 252.54 291.92 251.91 292.28C251.38 292.6 250.5 292.46 250.22 291.84Z" fill="#3E1774"/>
<path d="M277.04 329.54C274.89 328.34 272.17 329.1 270.97 331.26C270.85 331.47 270.76 331.69 270.68 331.91L254.69 322.97L271.72 313.44C271.8 313.66 271.89 313.88 272.01 314.09C273.21 316.24 275.93 317.01 278.08 315.81C280.23 314.6 281 311.89 279.8 309.73C279.04 308.38 277.69 307.57 276.25 307.46C276.91 306.18 276.93 304.6 276.17 303.25C274.97 301.1 272.25 300.33 270.1 301.53C267.95 302.73 267.18 305.45 268.38 307.6C268.5 307.81 268.63 308 268.78 308.18L248.53 319.51L228.28 308.18C228.42 308 228.56 307.81 228.68 307.6C229.88 305.45 229.12 302.73 226.96 301.53C224.81 300.33 222.09 301.09 220.89 303.25C220.13 304.6 220.16 306.18 220.81 307.46C219.37 307.57 218.02 308.38 217.26 309.73C216.06 311.88 216.83 314.6 218.98 315.81C221.13 317.01 223.85 316.24 225.06 314.09C225.18 313.88 225.27 313.66 225.35 313.44L242.38 322.97L226.39 331.91C226.31 331.69 226.22 331.47 226.1 331.26C224.9 329.11 222.18 328.34 220.03 329.54C217.88 330.74 217.11 333.46 218.31 335.62C219.07 336.97 220.42 337.78 221.86 337.89C221.21 339.17 221.18 340.75 221.94 342.1C223.14 344.25 225.86 345.02 228.01 343.82C230.16 342.62 230.93 339.9 229.73 337.75C229.61 337.54 229.48 337.35 229.33 337.16L248.54 326.41L267.75 337.16C267.6 337.34 267.47 337.54 267.35 337.75C266.14 339.9 266.91 342.62 269.07 343.82C271.22 345.02 273.94 344.25 275.14 342.1C275.9 340.75 275.87 339.17 275.22 337.89C276.66 337.78 278.01 336.97 278.77 335.62C279.96 333.47 279.19 330.75 277.04 329.54Z" fill="white"/>
</g>
<defs>
<linearGradient id="paint0_linear_14_3" x1="380.317" y1="196.809" x2="434.955" y2="196.809" gradientUnits="userSpaceOnUse">
<stop stop-color="#FFAD31"/>
<stop offset="1" stop-color="#F9479F"/>
</linearGradient>
<linearGradient id="paint1_linear_14_3" x1="387.537" y1="197.711" x2="427.735" y2="197.711" gradientUnits="userSpaceOnUse">
<stop stop-color="#FFAD31"/>
<stop offset="1" stop-color="#F9479F"/>
</linearGradient>
<linearGradient id="paint2_linear_14_3" x1="23.122" y1="220.419" x2="38.1957" y2="220.419" gradientUnits="userSpaceOnUse">
<stop stop-color="#F9479F"/>
<stop offset="1" stop-color="#FFAD31"/>
</linearGradient>
<linearGradient id="paint3_linear_14_3" x1="20.1903" y1="225.021" x2="36.5463" y2="225.021" gradientUnits="userSpaceOnUse">
<stop stop-color="#F9479F"/>
<stop offset="1" stop-color="#FFAD31"/>
</linearGradient>
<linearGradient id="paint4_linear_14_3" x1="25.5706" y1="195.604" x2="60.0506" y2="195.604" gradientUnits="userSpaceOnUse">
<stop stop-color="#F9479F"/>
<stop offset="1" stop-color="#FFAD31"/>
</linearGradient>
<linearGradient id="paint5_linear_14_3" x1="377.117" y1="122.175" x2="377.117" y2="31.417" gradientUnits="userSpaceOnUse">
<stop stop-color="#B93576"/>
<stop offset="1" stop-color="#BF8225"/>
</linearGradient>
<linearGradient id="paint6_linear_14_3" x1="374.77" y1="121.001" x2="374.77" y2="30.2431" gradientUnits="userSpaceOnUse">
<stop stop-color="#F9479F"/>
<stop offset="1" stop-color="#FFAD31"/>
</linearGradient>
<linearGradient id="paint7_linear_14_3" x1="407.111" y1="64.7187" x2="407.111" y2="0" gradientUnits="userSpaceOnUse">
<stop stop-color="#FFAD31"/>
<stop offset="1" stop-color="#F9479F"/>
</linearGradient>
<linearGradient id="paint8_linear_14_3" x1="342.43" y1="129.438" x2="342.43" y2="64.7187" gradientUnits="userSpaceOnUse">
<stop stop-color="#FFAD31"/>
<stop offset="1" stop-color="#F9479F"/>
</linearGradient>
<linearGradient id="paint9_linear_14_3" x1="49.5721" y1="43.0415" x2="88.6556" y2="43.0415" gradientUnits="userSpaceOnUse">
<stop stop-color="#FFAD31"/>
<stop offset="1" stop-color="#F9479F"/>
</linearGradient>
<linearGradient id="paint10_linear_14_3" x1="52.5655" y1="300.959" x2="99.9278" y2="300.959" gradientUnits="userSpaceOnUse">
<stop stop-color="#FFAD31"/>
<stop offset="1" stop-color="#F9479F"/>
</linearGradient>
<clipPath id="clip0_14_3">
<rect width="466.36" height="384.04" fill="white"/>
</clipPath>
</defs>
</svg>
